{"asset":{"version":"2.0","generator":"THREE.GLTFExporter"},"scenes":[{"name":"AuxScene","nodes":[10]}],"scene":0,"nodes":[{"matrix":[0.0045000000000000005,0.007794228634059947,0,0,-0.007794228634059947,0.0045000000000000005,0,0,0,0,0.009,0,0,0,0,1],"mesh":0},{"children":[0]},{"matrix":[0.0045000000000000005,0.007794228634059947,0,0,-0.007794228634059947,0.0045000000000000005,0,0,0,0,0.009,0,2,0,-2,1],"mesh":1},{"children":[2]},{"matrix":[0.0045000000000000005,0.007794228634059947,0,0,-0.007794228634059947,0.0045000000000000005,0,0,0,0,0.009,0,-2,0,-2,1],"mesh":2},{"children":[4]},{"matrix":[0.0045000000000000005,0.007794228634059947,0,0,-0.007794228634059947,0.0045000000000000005,0,0,0,0,0.009,0,0,2,-10,1],"mesh":3},{"children":[6]},{"matrix":[-4.440892098500626e-16,0,-1.0000000000000004,0,-1.0000000000000004,-4.440892098500626e-16,0,0,0,1.0000000000000004,-4.440892098500626e-16,0,0,-0.8,0,1],"mesh":4},{},{"children":[1,3,5,7,8,9]}],"bufferViews":[{"buffer":0,"byteOffset":0,"byteLength":216,"target":34962,"byteStride":12},{"buffer":0,"byteOffset":216,"byteLength":216,"target":34962,"byteStride":12},{"buffer":0,"byteOffset":432,"byteLength":144,"target":34962,"byteStride":8},{"buffer":0,"byteOffset":576,"byteLength":216,"target":34962,"byteStride":12},{"buffer":0,"byteOffset":792,"byteLength":216,"target":34962,"byteStride":12},{"buffer":0,"byteOffset":1008,"byteLength":144,"target":34962,"byteStride":8},{"buffer":0,"byteOffset":1152,"byteLength":216,"target":34962,"byteStride":12},{"buffer":0,"byteOffset":1368,"byteLength":216,"target":34962,"byteStride":12},{"buffer":0,"byteOffset":1584,"byteLength":144,"target":34962,"byteStride":8},{"buffer":0,"byteOffset":1728,"byteLength":216,"target":34962,"byteStride":12},{"buffer":0,"byteOffset":1944,"byteLength":216,"target":34962,"byteStride":12},{"buffer":0,"byteOffset":2160,"byteLength":144,"target":34962,"byteStride":8},{"buffer":0,"byteOffset":2304,"byteLength":48,"target":34962,"byteStride":12},{"buffer":0,"byteOffset":2352,"byteLength":48,"target":34962,"byteStride":12},{"buffer":0,"byteOffset":2400,"byteLength":32,"target":34962,"byteStride":8},{"buffer":0,"byteOffset":2432,"byteLength":12,"target":34963}],"buffers":[{"byteLength":2444,"uri":"data:application/octet-stream;base64,"}],"accessors":[{"bufferView":0,"componentType":5126,"count":18,"max":[303.55938720703125,266.25,0],"min":[13.440717697143555,15.000006675720215,0],"type":"VEC3"},{"bufferView":1,"componentType":5126,"count":18,"max":[0,0,1],"min":[0,0,1],"type":"VEC3"},{"bufferView":2,"componentType":5126,"count":18,"max":[1,1],"min":[0,0],"type":"VEC2"},{"bufferView":3,"componentType":5126,"count":18,"max":[303.55938720703125,266.25,0],"min":[13.440717697143555,15.000006675720215,0],"type":"VEC3"},{"bufferView":4,"componentType":5126,"count":18,"max":[0,0,1],"min":[0,0,1],"type":"VEC3"},{"bufferView":5,"componentType":5126,"count":18,"max":[1,1],"min":[0,0],"type":"VEC2"},{"bufferView":6,"componentType":5126,"count":18,"max":[303.55938720703125,266.25,0],"min":[13.440717697143555,15.000006675720215,0],"type":"VEC3"},{"bufferView":7,"componentType":5126,"count":18,"max":[0,0,1],"min":[0,0,1],"type":"VEC3"},{"bufferView":8,"componentType":5126,"count":18,"max":[1,1],"min":[0,0],"type":"VEC2"},{"bufferView":9,"componentType":5126,"count":18,"max":[303.55938720703125,266.25,0],"min":[13.440717697143555,15.000006675720215,0],"type":"VEC3"},{"bufferView":10,"componentType":5126,"count":18,"max":[0,0,1],"min":[0,0,1],"type":"VEC3"},{"bufferView":11,"componentType":5126,"count":18,"max":[1,1],"min":[0,0],"type":"VEC2"},{"bufferView":12,"componentType":5126,"count":4,"max":[4,4,0],"min":[-4,-4,0],"type":"VEC3"},{"bufferView":13,"componentType":5126,"count":4,"max":[0,0,1],"min":[0,0,1],"type":"VEC3"},{"bufferView":14,"componentType":5126,"count":4,"max":[1,1],"min":[0,0],"type":"VEC2"},{"bufferView":15,"componentType":5123,"count":6,"max":[3],"min":[0],"type":"SCALAR"}],"materials":[{"pbrMetallicRoughness":{"baseColorFactor":[1,0.014443843592229466,0.11697066774917994,1],"metallicFactor":0,"roughnessFactor":0.9},"extensions":{"KHR_materials_unlit":{}}},{"pbrMetallicRoughness":{"baseColorFactor":[0,1,1,1],"metallicFactor":0,"roughnessFactor":0.9},"extensions":{"KHR_materials_unlit":{}}},{"pbrMetallicRoughness":{"baseColorFactor":[1,0.37626212298046485,0,1],"metallicFactor":0,"roughnessFactor":0.9},"extensions":{"KHR_materials_unlit":{}}},{"pbrMetallicRoughness":{"metallicFactor":0,"roughnessFactor":0.9},"extensions":{"KHR_materials_unlit":{}}},{"pbrMetallicRoughness":{"baseColorFactor":[0.8713671191959567,0.8713671191959567,0.8713671191959567,1],"metallicFactor":0,"roughnessFactor":1},"normalTexture":{"index":0,"scale":2},"alphaMode":"BLEND"}],"meshes":[{"primitives":[{"mode":4,"attributes":{"POSITION":0,"NORMAL":1,"TEXCOORD_0":2},"material":0}]},{"primitives":[{"mode":4,"attributes":{"POSITION":3,"NORMAL":4,"TEXCOORD_0":5},"material":1}]},{"primitives":[{"mode":4,"attributes":{"POSITION":6,"NORMAL":7,"TEXCOORD_0":8},"material":2}]},{"primitives":[{"mode":4,"attributes":{"POSITION":9,"NORMAL":10,"TEXCOORD_0":11},"material":3}]},{"primitives":[{"mode":4,"attributes":{"POSITION":12,"NORMAL":13,"TEXCOORD_0":14},"indices":15,"material":4}]}],"textures":[{"sampler":0,"source":0}],"samplers":[{"magFilter":9729,"minFilter":9987,"wrapS":33071,"wrapT":33071}],"images":[{"mimeType":"image/png","uri":"data:image/png;base64,"}],"extensionsUsed":["KHR_materials_unlit"]}