{"asset":{"version":"2.0","generator":"THREE.GLTFExporter"},"scenes":[{"name":"AuxScene","nodes":[10]}],"scene":0,"nodes":[{"matrix":[0.0045,0.0077942286340599454,0,0,-0.0077942286340599454,0.0045,0,0,0,0,0.009,0,0,0,0,1],"name":"mesh_0","mesh":0},{"matrix":[1,0,0,0,0,1,0,0,0,0,1,0,0,-1.8437873128470796,0,1],"children":[0]},{"matrix":[0.0045,0.0077942286340599454,0,0,-0.0077942286340599454,0.0045,0,0,0,0,0.009,0,2,0,-2,1],"name":"mesh_1","mesh":1},{"matrix":[1,0,0,0,0,1,0,0,0,0,1,0,0,-1.8473945648516716,0,1],"children":[2]},{"matrix":[0.0045,0.0077942286340599454,0,0,-0.0077942286340599454,0.0045,0,0,0,0,0.009,0,-2,0,-2,1],"name":"mesh_2","mesh":2},{"matrix":[1,0,0,0,0,1,0,0,0,0,1,0,0,-1.6989784012078901,0,1],"children":[4]},{"matrix":[0.0045,0.0077942286340599454,0,0,-0.0077942286340599454,0.0045,0,0,0,0,0.009,0,0,2,-10,1],"name":"mesh_3","mesh":3},{"matrix":[1,0,0,0,0,1,0,0,0,0,1,0,0,-1.650437778618671,0,1],"children":[6]},{"matrix":[0.9958794589679157,0,-0.09068684141468089,0,0,1,0,0,0.09068684141468089,0,0.9958794589679157,0,-0.5781246438323214,-0.08511695261750117,0,1],"children":[1,3,5,7]},{"name":"AuxScene","children":[8]},{"matrix":[0.9876883405951378,0,-0.15643446504023073,0,0,1,0,0,0.15643446504023073,0,0.9876883405951378,0,-0.9999999999999996,-0.08911070780399269,0,1],"children":[9]}],"bufferViews":[{"buffer":0,"byteOffset":0,"byteLength":216,"target":34962,"byteStride":12},{"buffer":0,"byteOffset":216,"byteLength":216,"target":34962,"byteStride":12},{"buffer":0,"byteOffset":432,"byteLength":144,"target":34962,"byteStride":8},{"buffer":0,"byteOffset":576,"byteLength":216,"target":34962,"byteStride":12},{"buffer":0,"byteOffset":792,"byteLength":216,"target":34962,"byteStride":12},{"buffer":0,"byteOffset":1008,"byteLength":144,"target":34962,"byteStride":8},{"buffer":0,"byteOffset":1152,"byteLength":216,"target":34962,"byteStride":12},{"buffer":0,"byteOffset":1368,"byteLength":216,"target":34962,"byteStride":12},{"buffer":0,"byteOffset":1584,"byteLength":144,"target":34962,"byteStride":8},{"buffer":0,"byteOffset":1728,"byteLength":216,"target":34962,"byteStride":12},{"buffer":0,"byteOffset":1944,"byteLength":216,"target":34962,"byteStride":12},{"buffer":0,"byteOffset":2160,"byteLength":144,"target":34962,"byteStride":8}],"buffers":[{"byteLength":2304,"uri":"data:application/octet-stream;base64,"}],"accessors":[{"bufferView":0,"componentType":5126,"count":18,"max":[303.55938720703125,266.25,0],"min":[13.440717697143555,15.000006675720215,0],"type":"VEC3"},{"bufferView":1,"componentType":5126,"count":18,"max":[0,0,1],"min":[0,0,1],"type":"VEC3"},{"bufferView":2,"componentType":5126,"count":18,"max":[1,1],"min":[0,0],"type":"VEC2"},{"bufferView":3,"componentType":5126,"count":18,"max":[303.55938720703125,266.25,0],"min":[13.440717697143555,15.000006675720215,0],"type":"VEC3"},{"bufferView":4,"componentType":5126,"count":18,"max":[0,0,1],"min":[0,0,1],"type":"VEC3"},{"bufferView":5,"componentType":5126,"count":18,"max":[1,1],"min":[0,0],"type":"VEC2"},{"bufferView":6,"componentType":5126,"count":18,"max":[303.55938720703125,266.25,0],"min":[13.440717697143555,15.000006675720215,0],"type":"VEC3"},{"bufferView":7,"componentType":5126,"count":18,"max":[0,0,1],"min":[0,0,1],"type":"VEC3"},{"bufferView":8,"componentType":5126,"count":18,"max":[1,1],"min":[0,0],"type":"VEC2"},{"bufferView":9,"componentType":5126,"count":18,"max":[303.55938720703125,266.25,0],"min":[13.440717697143555,15.000006675720215,0],"type":"VEC3"},{"bufferView":10,"componentType":5126,"count":18,"max":[0,0,1],"min":[0,0,1],"type":"VEC3"},{"bufferView":11,"componentType":5126,"count":18,"max":[1,1],"min":[0,0],"type":"VEC2"}],"materials":[{"pbrMetallicRoughness":{"baseColorFactor":[1,0.014443843592229466,0.11697066774917994,1],"metallicFactor":0,"roughnessFactor":0.9},"extensions":{"KHR_materials_unlit":{}}},{"pbrMetallicRoughness":{"baseColorFactor":[0,1,1,1],"metallicFactor":0,"roughnessFactor":0.9},"extensions":{"KHR_materials_unlit":{}}},{"pbrMetallicRoughness":{"baseColorFactor":[1,0.37626212298046485,0,1],"metallicFactor":0,"roughnessFactor":0.9},"extensions":{"KHR_materials_unlit":{}}},{"pbrMetallicRoughness":{"metallicFactor":0,"roughnessFactor":0.9},"extensions":{"KHR_materials_unlit":{}}}],"meshes":[{"primitives":[{"mode":4,"attributes":{"POSITION":0,"NORMAL":1,"TEXCOORD_0":2},"material":0}]},{"primitives":[{"mode":4,"attributes":{"POSITION":3,"NORMAL":4,"TEXCOORD_0":5},"material":1}]},{"primitives":[{"mode":4,"attributes":{"POSITION":6,"NORMAL":7,"TEXCOORD_0":8},"material":2}]},{"primitives":[{"mode":4,"attributes":{"POSITION":9,"NORMAL":10,"TEXCOORD_0":11},"material":3}]}],"extensionsUsed":["KHR_materials_unlit"]}